<svg version="1.1" id="Layer_1" xmlns="http://www.w3.org/2000/svg" xmlns:xlink="http://www.w3.org/1999/xlink" x="0px" y="0px" viewBox="0 0 490 100" style="enable-background:new 0 0 490 100;" xml:space="preserve" height="NaN" width="undefined">
<style type="text/css">
	.st0{fill:#FFFFFF;}
</style>
<g>
	<path class="st0" d="M474.99,92.3c-153.33,0-306.45,0-459.97,0c0-28.22,0-56.27,0-84.6c153.33,0,306.45,0,459.97,0
		C474.99,35.92,474.99,63.97,474.99,92.3z M21.83,85.35c148.88,0,297.47,0,446.24,0c0-23.71,0-47.11,0-70.59
		c-148.95,0-297.52,0-446.24,0C21.83,38.48,21.83,61.76,21.83,85.35z"></path>
	<g>
		<path class="st0" d="M77.51,20.73c14.67,0,29.08,0,43.84,0c0,19.52,0,38.88,0,58.54c-14.67,0-29.09,0-43.84,0
			C77.51,59.72,77.51,40.37,77.51,20.73z"></path>
		<path class="st0" d="M220.67,20.83c0,19.5,0,38.72,0,58.34c-14.54,0-28.92,0-43.75,0c0-19.3,0-38.63,0-58.34
			C191.31,20.83,205.7,20.83,220.67,20.83z"></path>
		<path class="st0" d="M71.56,79.28c-14.51,0-28.9,0-43.52,0c0-19.63,0-38.97,0-58.56c14.57,0,28.83,0,43.52,0
			C71.56,40.14,71.56,59.6,71.56,79.28z"></path>
		<path class="st0" d="M170.95,20.81c0,19.55,0,38.77,0,58.38c-14.56,0-28.94,0-43.68,0c0-19.3,0-38.66,0-58.38
			C141.61,20.81,155.99,20.81,170.95,20.81z"></path>
		<path class="st0" d="M270.09,79.29c-14.71,0-29.1,0-43.76,0c0-19.62,0-38.96,0-58.56c14.67,0,29.06,0,43.76,0
			C270.09,40.22,270.09,59.44,270.09,79.29z"></path>
	</g>
</g>
</svg>